<svg xmlns="http://www.w3.org/2000/svg" viewBox="0 0 305.86 58.98"><defs><style>.cls-1{fill:#fff;}.cls-2{fill:#7f6aaf;}.cls-3{fill:#1eb9a2;}.cls-4{fill:#94cb70;}.cls-5{fill:#fee472;}.cls-6{fill:#f9ac95;}.cls-7{fill:#ff7276;}</style></defs><title>logo-white0</title><g id="Layer_2" data-name="Layer 2"><g id="Layer_1-2" data-name="Layer 1"><path class="cls-1" d="M9,35.31c0,3.38.51,6,1.55,7.83a4.91,4.91,0,0,0,4.5,2.77,5.88,5.88,0,0,0,3.43-1.1,9.26,9.26,0,0,0,2.7-3.07A16.65,16.65,0,0,0,23,37.07a26,26,0,0,0,.63-5.89,32.54,32.54,0,0,0-.15-3.35c-.1-.94-.21-1.79-.32-2.53s-.23-1.41-.33-2a9.84,9.84,0,0,1-.15-1.66,1.85,1.85,0,0,1,1-1.76,7.22,7.22,0,0,1,3.26-.55,6.83,6.83,0,0,1,4.41,1.28,4.56,4.56,0,0,1,1.57,3.75,50.81,50.81,0,0,1-1.31,12,29.3,29.3,0,0,1-3.74,9.06,17.49,17.49,0,0,1-5.93,5.73,15.3,15.3,0,0,1-7.79,2,12.64,12.64,0,0,1-5.66-1.27A13.13,13.13,0,0,1,4,48.38a17,17,0,0,1-2.93-5.45A21.59,21.59,0,0,1,0,36c0-1,0-2,.08-3.07s.12-2.25.22-3.5.24-2.6.4-4.07.35-3.05.55-4.76a2.34,2.34,0,0,1,1-1.76,3.92,3.92,0,0,1,2.36-.67,10.52,10.52,0,0,1,2.43.27A7.2,7.2,0,0,1,9,19.15a4,4,0,0,1,1.28,1.06,2,2,0,0,1,.48,1.28,12.56,12.56,0,0,1-.29,2.14q-.29,1.46-.6,3.33c-.22,1.25-.42,2.6-.61,4.05A33,33,0,0,0,9,35.31Z"/><path class="cls-1" d="M38.07,18.16a1.65,1.65,0,0,1,.5-1.11,4.57,4.57,0,0,1,1.28-1,8.67,8.67,0,0,1,1.8-.72,7.37,7.37,0,0,1,2-.28,1.55,1.55,0,0,1,1,.3,2.43,2.43,0,0,1,.7,1.16,13.73,13.73,0,0,1,.55,2.38c.16,1,.32,2.35.47,4a9.62,9.62,0,0,0,.29,1.16c.08.26.2.4.36.4s.45-.4.68-1.18q2.76-8,8-8a7.08,7.08,0,0,1,4.41,1.51,14,14,0,0,1,3.71,4.94,51,51,0,0,1,3.28,9q1.55,5.58,3.1,13.75c0,.28.09.53.11.76a4.93,4.93,0,0,1,0,.65,2.68,2.68,0,0,1-.4,1.49,3.08,3.08,0,0,1-1,1,5.16,5.16,0,0,1-1.44.61,6.2,6.2,0,0,1-1.59.21,5.75,5.75,0,0,1-2.29-.34,1.73,1.73,0,0,1-.89-1.29q-1.1-5.76-2.13-10.22t-2-7.51a23.07,23.07,0,0,0-2-4.64c-.66-1.06-1.32-1.59-2-1.59a2.34,2.34,0,0,0-1.84,1.23,14.35,14.35,0,0,0-1.64,3.84,60.8,60.8,0,0,0-1.54,6.63q-.74,4-1.42,9.57a3.31,3.31,0,0,1-1.51,2.42,5.8,5.8,0,0,1-3.37.91,3.28,3.28,0,0,1-2.08-.57,2.1,2.1,0,0,1-.8-1.55q-.33-7.87-.73-13c-.27-3.39-.51-6.12-.74-8.18s-.42-3.58-.57-4.59A17.21,17.21,0,0,1,38.07,18.16Z"/><path class="cls-1" d="M108.57,41.8q-.72-8.85-1.65-17.6t-2.7-17.45a1.88,1.88,0,0,1-.08-.55V5.73a3,3,0,0,1,.36-1.51,3.31,3.31,0,0,1,1-1.08,4.58,4.58,0,0,1,1.39-.66,5.47,5.47,0,0,1,1.64-.23,3.17,3.17,0,0,1,3.18,2.16,25.83,25.83,0,0,1,.78,3.14c.26,1.36.54,2.94.83,4.73s.57,3.75.85,5.88.54,4.33.8,6.57c.07.63.27.95.6.95a1.2,1.2,0,0,0,.87-.57q5.53-7.27,13.1-7.27a11.59,11.59,0,0,1,5.3,1.25,13.5,13.5,0,0,1,4.27,3.41,16.16,16.16,0,0,1,2.86,5.11A19.07,19.07,0,0,1,143,34a16.92,16.92,0,0,1-1,5.9,14.3,14.3,0,0,1-2.78,4.69A12.91,12.91,0,0,1,135,47.65a12.71,12.71,0,0,1-5.32,1.11,18.38,18.38,0,0,1-7-1.38,26.78,26.78,0,0,1-6.44-3.73,1.09,1.09,0,0,0-.72-.3,1.18,1.18,0,0,0-.91.53,2.82,2.82,0,0,1-1.28.89,5.76,5.76,0,0,1-1.67.21C109.68,45,108.64,43.92,108.57,41.8Zm19.6-16.92a7.15,7.15,0,0,0-3,.7,10.61,10.61,0,0,0-2.82,2,16.81,16.81,0,0,0-2.44,3.08,19.64,19.64,0,0,0-1.87,4,.8.8,0,0,0-.11.34,2,2,0,0,0,0,.38,1.15,1.15,0,0,0,.45,1q1.36,1.17,2.82,2.19a24.65,24.65,0,0,0,2.9,1.78,16.29,16.29,0,0,0,2.84,1.2,8.78,8.78,0,0,0,2.61.43,5.26,5.26,0,0,0,4.14-1.59,6.71,6.71,0,0,0,1.42-4.62,17,17,0,0,0-.53-4.33A12.41,12.41,0,0,0,133.09,28a7.07,7.07,0,0,0-2.17-2.27A5,5,0,0,0,128.17,24.88Z"/><path class="cls-1" d="M180.18,42.25a3.33,3.33,0,0,1,2.15-.94,2.06,2.06,0,0,1,1.1.3,5.74,5.74,0,0,1,1.1,1,10.07,10.07,0,0,1,.81,1.42,2.49,2.49,0,0,1,.25,1.07,2.92,2.92,0,0,1-1.14,2.16,26.57,26.57,0,0,1-3.93,2.71,29.52,29.52,0,0,1-4.43,2,28.39,28.39,0,0,1-4.77,1.27,28,28,0,0,1-4.88.44,20.61,20.61,0,0,1-5.76-.78,16.78,16.78,0,0,1-4.78-2.21,14.07,14.07,0,0,1-3.54-3.47,13.12,13.12,0,0,1-2.05-4.56,4.32,4.32,0,0,0-.62-1.38,1.2,1.2,0,0,0-.93-.32,3.16,3.16,0,0,1-2.16-.68,2.53,2.53,0,0,1-.75-2,1.94,1.94,0,0,1,.07-.68l.08-.76a3.69,3.69,0,0,1,.74-2,2.22,2.22,0,0,1,1.72-.6H149a2.26,2.26,0,0,0,2.23-1.48,20.18,20.18,0,0,1,7.08-8.46A19.58,19.58,0,0,1,163.2,22a16.77,16.77,0,0,1,5.28-.85,16.49,16.49,0,0,1,5.24.81A13.73,13.73,0,0,1,178,24.16a10.92,10.92,0,0,1,2.86,3.37,8.7,8.7,0,0,1,1,4.16,6.46,6.46,0,0,1-.61,2.84,6.64,6.64,0,0,1-1.74,2.26,9.32,9.32,0,0,1-2.74,1.57,14.33,14.33,0,0,1-3.65.79L160,40.48a1.94,1.94,0,0,0-1.23.37,1.28,1.28,0,0,0-.47,1,3,3,0,0,0,.74,1.89,7,7,0,0,0,2,1.61,11.52,11.52,0,0,0,2.83,1.11,13.14,13.14,0,0,0,3.32.42,18.68,18.68,0,0,0,3.35-.32,23.18,23.18,0,0,0,3.4-.93,23.94,23.94,0,0,0,3.28-1.46A19.68,19.68,0,0,0,180.18,42.25Zm-8.44-9.76a1.9,1.9,0,0,0,1-.55,1.49,1.49,0,0,0,.42-1.08,1.6,1.6,0,0,0-.42-1.06,4.11,4.11,0,0,0-1.14-.89,6.75,6.75,0,0,0-1.66-.62,8.65,8.65,0,0,0-2-.23,11.59,11.59,0,0,0-3.18.46,13.47,13.47,0,0,0-2.95,1.19,8.73,8.73,0,0,0-2.16,1.63,2.61,2.61,0,0,0-.83,1.76c0,.58.35.87,1.06.87a20.25,20.25,0,0,0,2.08-.16l3.18-.36c1.16-.13,2.34-.29,3.52-.47S170.85,32.64,171.74,32.49Z"/><path class="cls-1" d="M211.74,17.46a12.53,12.53,0,0,1,4,.65,11.51,11.51,0,0,1,3.41,1.78,8.78,8.78,0,0,1,2.36,2.72,7,7,0,0,1,.89,3.52,3.44,3.44,0,0,1-.36,1.53,4.11,4.11,0,0,1-1,1.29,4.74,4.74,0,0,1-1.38.87,4.09,4.09,0,0,1-1.61.32l-.13,0-.14,0a.28.28,0,0,1-.15,0l.15,3c.1,3.6.62,6.24,1.54,7.91A4.09,4.09,0,0,0,223,43.65a6.13,6.13,0,0,0,1.42-.15,8.94,8.94,0,0,0,1.17-.36l1-.36a3.4,3.4,0,0,1,1-.15,2,2,0,0,1,1.53.76,2.66,2.66,0,0,1,.66,1.82,3.51,3.51,0,0,1-.81,2.12,8.53,8.53,0,0,1-2.14,1.91,12.64,12.64,0,0,1-3,1.38,11.14,11.14,0,0,1-3.37.53,6.85,6.85,0,0,1-5.18-2.44,14.74,14.74,0,0,1-3.18-7.18c-.15-.5-.35-.75-.61-.75a1,1,0,0,0-.79.45,27.38,27.38,0,0,1-8,7.1,17,17,0,0,1-8.36,2.36,10.24,10.24,0,0,1-3.48-.56,7.33,7.33,0,0,1-2.63-1.61A7.07,7.07,0,0,1,186.59,46a9.09,9.09,0,0,1-.59-3.35,14.76,14.76,0,0,1,1.16-5.49,28.43,28.43,0,0,1,3.12-5.67,37.75,37.75,0,0,1,4.56-5.34,39.78,39.78,0,0,1,5.45-4.47,29.53,29.53,0,0,1,5.81-3.06A15.67,15.67,0,0,1,211.74,17.46Zm-1.25,13.1a8.52,8.52,0,0,1,1.25-1.87,2.88,2.88,0,0,1,1.63-.78c.55-.08.83-.25.83-.53a1.17,1.17,0,0,0-.23-.64A12.32,12.32,0,0,0,212.46,25a3,3,0,0,0-2.12-.73,7.64,7.64,0,0,0-3.22.83,20.29,20.29,0,0,0-3.61,2.21,34.4,34.4,0,0,0-3.6,3.14,32.27,32.27,0,0,0-3.12,3.62,20.75,20.75,0,0,0-2.19,3.67,7.91,7.91,0,0,0-.84,3.26,2.78,2.78,0,0,0,.7,2,2.56,2.56,0,0,0,1.91.72q3.1,0,6.78-3.29A38.47,38.47,0,0,0,210.49,30.56Z"/><path class="cls-1" d="M251.52,22.23a4.18,4.18,0,0,0-2.46.74,6.26,6.26,0,0,0-1.82,2A13.75,13.75,0,0,0,246,28.08a29.84,29.84,0,0,0-.79,3.84q-.3,2.09-.42,4.35c-.07,1.52-.11,3-.11,4.58q0,3,.24,6c.17,2,.25,3.77.25,5.44A3,3,0,0,1,244,54.8a5.58,5.58,0,0,1-3.45.93,6.87,6.87,0,0,1-.94-.08,3.32,3.32,0,0,1-1-.3,2.58,2.58,0,0,1-.84-.63,1.63,1.63,0,0,1-.39-1.07q-.35-3.33-1-6.82c-.43-2.32-1-4.63-1.61-6.94A67.61,67.61,0,0,0,232.42,33a62.58,62.58,0,0,0-3.08-6.66c-.2-.38-.37-.73-.51-1.06a2.44,2.44,0,0,1-.21-.95,2.06,2.06,0,0,1,.51-1.23,6.34,6.34,0,0,1,1.29-1.23,7.16,7.16,0,0,1,1.7-.93,5.17,5.17,0,0,1,1.8-.35c1,0,1.8.66,2.53,2a24.62,24.62,0,0,1,2.05,6.34,10.65,10.65,0,0,0,.3,1.06q.12.3.3.3c.28,0,.46-.42.53-1.28a23.41,23.41,0,0,1,1.56-6.19,13.65,13.65,0,0,1,2.74-4.28,10.31,10.31,0,0,1,3.78-2.48,13.47,13.47,0,0,1,4.72-.79,18,18,0,0,1,3,.26,12.23,12.23,0,0,1,2.72.8,6.24,6.24,0,0,1,2,1.29,2.36,2.36,0,0,1,.76,1.7,5.67,5.67,0,0,1-.29,1.61,9.55,9.55,0,0,1-.74,1.78,6.06,6.06,0,0,1-1,1.43,1.68,1.68,0,0,1-1.19.59,2.45,2.45,0,0,1-1.32-.4l-1.38-.85c-.5-.3-1-.58-1.56-.85A4.17,4.17,0,0,0,251.52,22.23Z"/><path class="cls-1" d="M267.87,17.69a21.83,21.83,0,0,1,5.22.66A27.07,27.07,0,0,1,278,20.06a15,15,0,0,1,3.67,2.32,3.53,3.53,0,0,1,1.44,2.5,2.42,2.42,0,0,1-.53,1.35,8.36,8.36,0,0,1-1.29,1.4,7.43,7.43,0,0,1-1.64,1.09,3.06,3.06,0,0,1-3.6-.32l-2.46-1.68A21.19,21.19,0,0,0,270.67,25a8,8,0,0,0-3.45-.75,3.19,3.19,0,0,0-2,.58,1.94,1.94,0,0,0-.78,1.65,2.81,2.81,0,0,0,.91,1.91,15.25,15.25,0,0,0,2.4,2q1.5,1,3.39,2.16c1.26.75,2.56,1.56,3.88,2.42s2.62,1.79,3.88,2.8a24.6,24.6,0,0,1,3.39,3.29,16.08,16.08,0,0,1,2.4,3.88,11.29,11.29,0,0,1,.91,4.56,9.5,9.5,0,0,1-.76,3.86,8.35,8.35,0,0,1-2.16,3,9.79,9.79,0,0,1-3.33,1.93,12.49,12.49,0,0,1-4.24.68,15.52,15.52,0,0,1-5.37-.89,13.09,13.09,0,0,1-4.24-2.44,11,11,0,0,1-3.78-8.44c0-2.22.39-3.83,1.19-4.84a4.49,4.49,0,0,1,3.76-1.52,4.7,4.7,0,0,1,2.54.61,1.75,1.75,0,0,1,.95,1.48,3,3,0,0,1-.15.92c-.11.32-.21.65-.33,1s-.21.7-.3,1.08a4.78,4.78,0,0,0-.13,1.13,4.17,4.17,0,0,0,.45,1.89A5.66,5.66,0,0,0,271,50.56a6.14,6.14,0,0,0,1.8,1.12,5.61,5.61,0,0,0,2.16.41q3,0,3-2.49a5.53,5.53,0,0,0-1.56-3.73,23.62,23.62,0,0,0-3.89-3.45c-1.57-1.12-3.25-2.25-5.06-3.38a57.86,57.86,0,0,1-5.05-3.56,21.4,21.4,0,0,1-3.9-4A7.54,7.54,0,0,1,256.93,27a8.19,8.19,0,0,1,.85-3.74,9.12,9.12,0,0,1,2.33-2.94,10.94,10.94,0,0,1,3.46-1.91A13.32,13.32,0,0,1,267.87,17.69Z"/><path class="cls-2" d="M75.57,43.36c0,3,6.08,5.49,13.58,5.49s13.57-2.46,13.57-5.49c0-.72-.34-3.48-1-7.27L76,39.55C75.72,41.52,75.57,42.89,75.57,43.36Z"/><path class="cls-2" d="M75,43.36c.08,2.07,2,3.38,3.7,4.17A24.41,24.41,0,0,0,88,49.46,27.61,27.61,0,0,0,98.45,48c1.8-.66,4.13-1.76,4.75-3.76a6.73,6.73,0,0,0,0-2.79c-.22-1.86-.51-3.7-.8-5.55-.06-.36-.47-.48-.77-.44l-22.55,3L75.83,39a.6.6,0,0,0-.44.43,35.61,35.61,0,0,0-.44,4,.63.63,0,0,0,1.25,0,29.57,29.57,0,0,1,.4-3.64l-.44.43,22.55-3,3.22-.43-.77-.44c.3,1.83.58,3.66.79,5.49a4.61,4.61,0,0,1,0,2.39c-1.11,2.47-5.24,3.26-7.56,3.67a29.74,29.74,0,0,1-12-.32c-1.93-.46-6.1-1.55-6.2-4.12C76.16,42.56,74.91,42.55,75,43.36Z"/><path class="cls-3" d="M76,39.55l25.76-3.46c-.35-2.18-.79-4.7-1.32-7.37L77.26,31.84C76.71,34.84,76.28,37.52,76,39.55Z"/><path class="cls-3" d="M76.16,40.15l22.55-3,3.22-.43c.36,0,.48-.48.44-.77-.4-2.46-.85-4.92-1.32-7.37a.63.63,0,0,0-.77-.43L80,30.85l-2.87.38a.6.6,0,0,0-.43.44c-.47,2.56-.9,5.13-1.27,7.71-.11.79,1.1,1.13,1.21.34.37-2.58.8-5.15,1.26-7.72l-.44.44,20.32-2.73,2.87-.39-.77-.43c.48,2.44.92,4.9,1.32,7.36l.44-.77-22.55,3L75.83,39C75,39.05,75.38,40.26,76.16,40.15Z"/><path class="cls-4" d="M77.26,31.84l23.18-3.12c-.46-2.37-1-4.86-1.57-7.33L78.81,24.08C78.22,26.77,77.7,29.41,77.26,31.84Z"/><path class="cls-4" d="M77.42,32.44l20.31-2.73,2.88-.39c.35-.05.49-.47.44-.77-.49-2.45-1-4.89-1.58-7.33a.64.64,0,0,0-.77-.44L81.16,23.14l-2.52.34a.6.6,0,0,0-.43.44c-.56,2.57-1.08,5.16-1.55,7.75-.15.79,1.06,1.12,1.2.33.48-2.59,1-5.18,1.55-7.75l-.43.44,17.54-2.36L99,22l-.76-.44c.56,2.44,1.09,4.88,1.57,7.34l.44-.77L80,30.85l-2.88.38C76.3,31.34,76.64,32.54,77.42,32.44Z"/><path class="cls-5" d="M80.71,16.28c-.69,2.54-1.33,5.19-1.9,7.8l20.06-2.69c-.59-2.49-1.23-5-1.91-7.29Z"/><path class="cls-5" d="M80.11,16.12q-1,3.87-1.9,7.8a.64.64,0,0,0,.77.77l17.56-2.37L99,22a.63.63,0,0,0,.44-.77c-.58-2.44-1.2-4.88-1.91-7.29a.65.65,0,0,0-.77-.43L80.55,15.68c-.79.11-.46,1.31.33,1.2L97.12,14.7l-.77-.43c.71,2.41,1.34,4.84,1.92,7.28l.43-.77L81.14,23.14l-2.5.34.77.77c.58-2.62,1.21-5.22,1.91-7.8A.63.63,0,0,0,80.11,16.12Z"/><path class="cls-6" d="M94.44,6.89,83.24,8.4c-.9,2.33-1.75,5-2.53,7.88L97,14.1A67.92,67.92,0,0,0,94.44,6.89Z"/><path class="cls-6" d="M94.27,6.29,83.07,7.8c-.22,0-.36.25-.43.43-1,2.58-1.8,5.22-2.53,7.89a.63.63,0,0,0,.77.76L95.1,15l2-.27a.63.63,0,0,0,.44-.77A68.09,68.09,0,0,0,95,6.58c-.32-.74-1.39-.1-1.08.63a62.67,62.67,0,0,1,2.45,7.06l.44-.77L82.57,15.41l-2,.27.77.77c.73-2.66,1.53-5.31,2.52-7.89L83.41,9,94.6,7.5C95.4,7.39,95.06,6.18,94.27,6.29Z"/><path class="cls-7" d="M89.19.63c-2.12,0-4.16,3.11-6,7.7L94.41,7C92.83,3.16,91.07.65,89.19.63Z"/><path class="cls-7" d="M89.19,0a4.81,4.81,0,0,0-3.51,2.26,25,25,0,0,0-3.09,5.91.63.63,0,0,0,.6.79L93,7.75l1.39-.17c.35,0,.78-.37.6-.79a19.91,19.91,0,0,0-2.7-4.91A4.38,4.38,0,0,0,89.19,0c-.8,0-.8,1.22,0,1.25a3.41,3.41,0,0,1,2.32,1.62,19.46,19.46,0,0,1,2.3,4.26l.6-.8L84.59,7.54l-1.4.17.61.79a24.59,24.59,0,0,1,2.7-5.25c.61-.87,1.53-2,2.69-2A.63.63,0,0,0,89.19,0Z"/><path class="cls-1" d="M302.76,21a1.92,1.92,0,0,1,1.24-.54,1.24,1.24,0,0,1,.63.17,3.94,3.94,0,0,1,.63.55,6.31,6.31,0,0,1,.46.81,1.43,1.43,0,0,1,.14.62,1.65,1.65,0,0,1-.65,1.23A15,15,0,0,1,303,25.36a17.67,17.67,0,0,1-2.54,1.16,16,16,0,0,1-2.74.72,15.67,15.67,0,0,1-2.8.25,11.63,11.63,0,0,1-3.29-.44,9.51,9.51,0,0,1-2.75-1.27,8,8,0,0,1-2-2,7.36,7.36,0,0,1-1.17-2.61,2.35,2.35,0,0,0-.36-.79.65.65,0,0,0-.53-.19,1.79,1.79,0,0,1-1.24-.39,1.43,1.43,0,0,1-.43-1.13,1.09,1.09,0,0,1,0-.39l.05-.43a2.09,2.09,0,0,1,.42-1.13,1.28,1.28,0,0,1,1-.35h.32a1.29,1.29,0,0,0,1.28-.84,11.6,11.6,0,0,1,1.72-2.74,11.13,11.13,0,0,1,2.34-2.11A11.3,11.3,0,0,1,293,9.32a9.8,9.8,0,0,1,3-.49,9.43,9.43,0,0,1,3,.47,7.88,7.88,0,0,1,2.44,1.29,6.15,6.15,0,0,1,1.64,1.93,4.93,4.93,0,0,1,.6,2.39,3.85,3.85,0,0,1-.35,1.63,3.75,3.75,0,0,1-1,1.29,5.21,5.21,0,0,1-1.57.9,8,8,0,0,1-2.1.45l-7.53.76a1.1,1.1,0,0,0-.7.22.71.71,0,0,0-.27.59,1.71,1.71,0,0,0,.42,1.08,3.91,3.91,0,0,0,1.13.92,6.52,6.52,0,0,0,1.63.64,7.44,7.44,0,0,0,1.9.24,10.73,10.73,0,0,0,1.92-.18,13.75,13.75,0,0,0,1.95-.53,15,15,0,0,0,1.88-.84A12.9,12.9,0,0,0,302.76,21Zm-4.84-5.6a1,1,0,0,0,.57-.31.9.9,0,0,0,.23-.62,1,1,0,0,0-.23-.61,2.6,2.6,0,0,0-.66-.51,3.54,3.54,0,0,0-.95-.35,4.77,4.77,0,0,0-1.15-.13,6.51,6.51,0,0,0-1.82.26,7.64,7.64,0,0,0-1.7.68,5.08,5.08,0,0,0-1.23.93,1.5,1.5,0,0,0-.48,1c0,.33.2.5.61.5.24,0,.64,0,1.19-.09s1.16-.12,1.82-.2l2-.27Z"/></g></g></svg>